<svg width="100" height="100" viewBox="0 0 100 100" fill="none" xmlns="http://www.w3.org/2000/svg">
<circle cx="49.9999" cy="50" r="41.6667" fill="#181717"/>
<path d="M14.1953 71.3231C19.2675 79.8204 27.2796 86.3596 36.8281 89.5385C38.9128 89.9196 39.6725 88.633 39.6725 87.528C39.6725 87.0705 39.6648 86.2622 39.6545 85.1805C39.6426 83.9276 39.6272 82.3082 39.6162 80.4427C28.0264 82.9596 25.5811 74.8563 25.5811 74.8563C23.6857 70.0449 20.9539 68.7634 20.9539 68.7634C17.1708 66.1774 21.2404 66.2285 21.2404 66.2285C25.4225 66.5252 27.6223 70.5232 27.6223 70.5232C31.3389 76.8898 37.3755 75.0507 39.7492 73.9866C40.1278 71.2931 41.2021 69.4566 42.3941 68.4155C33.1422 67.3642 23.4146 63.7883 23.4146 47.822C23.4146 43.274 25.0388 39.5549 27.7041 36.6415C27.2744 35.5876 25.8446 31.3517 28.1108 25.6144C28.1108 25.6144 31.61 24.4941 39.5702 29.8861C42.8929 28.9627 46.4586 28.4997 50.0012 28.4844C53.5388 28.4997 57.1045 28.9627 60.4323 29.8861C68.3873 24.4941 71.8788 25.6144 71.8788 25.6144C74.1528 31.3517 72.7229 35.5876 72.2932 36.6415C74.9636 39.5549 76.5776 43.274 76.5776 47.822C76.5776 63.8292 66.8347 67.3514 57.5521 68.3822C59.0485 69.6689 60.3811 72.2114 60.3811 76.0994C60.3811 79.8235 60.3582 83.0671 60.3431 85.2158C60.3356 86.28 60.33 87.0756 60.33 87.528C60.33 88.6432 61.0794 89.9401 63.1948 89.5334C70.8014 86.9943 77.432 82.3239 82.3761 76.23C74.7368 85.6476 63.0713 91.6667 49.9999 91.6667C34.7804 91.6667 21.4668 83.5067 14.1953 71.3231Z" fill="white"/>
</svg>
